<svg width="367" height="290" viewBox="0 0 367 290" fill="none" xmlns="http://www.w3.org/2000/svg">
  <path d="M120.463 119.123C155.41 31.141 3 136.022 3 212.02C3 290.08 169.663 174.603 169.663 174.603M169.663 174.603C169.663 174.603 191.802 163.692 221.322 146.863C240.003 136.212 264.064 119.123 267.446 108.8C274.211 88.1564 258.221 67.4805 234.852 77.1893C172.738 102.994 169.663 155.537 169.663 174.603ZM169.663 174.603C288.356 146.863 385.525 142.992 137.683 287.5M169.663 268.946C169.663 208.046 169.663 147.939 169.663 119.123M249.612 128.108L298.196 101.24M364 65.5771L331.098 83.4084M249.612 58.4341L288.356 36.8988M351.7 3L319.721 19.9008M288.356 36.8988L298.196 101.24M288.356 36.8988L319.721 19.9008M298.196 101.24L331.098 83.4084M319.721 19.9008L331.098 83.4084" stroke="#C6C6C6" stroke-width="24" stroke-linecap="round"/>
  <path d="M319.721 19.9008L331.098 83.4084" stroke="#eeeeee" stroke-width="24" stroke-linecap="round"/>
  <path d="M249.612 58.4341L288.356 36.8988L319.721 19.9008L351.7 3" stroke="#eeeeee" stroke-width="24" stroke-linecap="round"/>
  <path d="M288.356 36.8988L298.196 101.24" stroke="#eeeeee" stroke-width="24" stroke-linecap="round"/>
  <path d="M249.612 128.108L298.196 101.24L331.098 83.4083L364 65.5771" stroke="#eeeeee" stroke-width="24" stroke-linecap="round"/>
  <path d="M169.663 174.603C288.356 146.863 385.525 142.992 137.683 287.5" stroke="#eeeeee" stroke-width="24" stroke-linecap="round"/>
  <path d="M169.663 268.946C169.663 208.046 169.663 147.939 169.663 119.123" stroke="#eeeeee" stroke-width="24" stroke-linecap="round"/>
  <path d="M120.463 119.123C155.41 31.141 3 134.605 3 212.02C3 289.435 177.772 171.691 221.322 146.863C240.003 136.212 264.064 119.123 267.446 108.8C274.211 88.1563 260.066 69.4476 234.852 77.1892C160.415 100.043 169.663 187.506 169.663 268.791" stroke="#eeeeee" stroke-width="24" stroke-linecap="round"/>
</svg>